<?xml version="1.0" encoding="UTF-8"?>
<svg id="Capa_1" data-name="Capa 1" xmlns="http://www.w3.org/2000/svg" viewBox="0 0 87.16 80.79">
  <defs>
    <style>
      .cls-1 {
        stroke-width: 3.5px;
      }

      .cls-1, .cls-2, .cls-3 {
        fill: none;
        stroke: #0d4037;
        stroke-linecap: round;
        stroke-linejoin: round;
      }

      .cls-2 {
        stroke-width: 4px;
      }

      .cls-3 {
        stroke-width: 2px;
      }
    </style>
  </defs>
  <path class="cls-2" d="m66.54,10.9c-4.1-.13-8.18-.4-12.28-.37-13.73.07-27.45.25-41.18.37-3.3.03-6.6,0-9.9,0"/>
  <path class="cls-1" d="m51.49,28.32c-4.16-2.1-7.51-1.97-9.9.4-2.58,2.56-3.18,5.97-1.58,9.11,1.83,3.61,3.46,4.36,9.5,4.36,5.89-4.84,6.6-8.12,2.77-12.67"/>
  <path class="cls-2" d="m12.69,21.59c13.6,0,27.19,0,40.78.02,1.32,0,2.64.25,3.96.38"/>
  <path class="cls-3" d="m76.44,1c-4.89,5.68-9.71,11.39-14.66,17.02-4.82,5.47-9.76,10.84-14.63,16.24"/>
  <path class="cls-2" d="m2,10.5c9.11,10.16,18.21,20.33,27.32,30.49l9.9,12.28s1.98.98,1.98,5.15v16.59h-4.4s-4.52-.18-6.78,3.77h27.12s1.5-3.77-5.27-3.77h-6.34l.04-16.59c-.18-2.14.35-3.89,1.93-5.59,6.19-6.63,12.23-13.38,18.25-20.16,6.52-7.35,12.95-14.77,19.42-22.17"/>
  <path class="cls-2" d="m59.81,21.2c4.89.13,9.76.26,14.65.4"/>
  <path class="cls-1" d="m69.71,10.9h12.28"/>
  <path class="cls-3" d="m41.2,40.99c-.66.92-1.32,1.85-1.98,2.77"/>
</svg>