<?xml version="1.0" encoding="UTF-8"?>
<svg id="Capa_1" data-name="Capa 1" xmlns="http://www.w3.org/2000/svg" viewBox="0 0 97.77 81.18">
  <defs>
    <style>
      .cls-1 {
        fill: none;
        stroke: #0d4037;
        stroke-linecap: round;
        stroke-linejoin: round;
        stroke-width: 5px;
      }
    </style>
  </defs>
  <path class="cls-1" d="m2.5,2.5c10.16,11.34,20.32,22.68,30.48,34.02l11.04,13.7s2.21,1.1,2.21,5.75v18.51h-4.91s-5.04-.21-7.56,4.21h30.26s1.68-4.21-5.88-4.21h-7.07l.04-18.51c-.2-2.39.39-4.34,2.16-6.24,6.9-7.39,13.65-14.92,20.36-22.49,7.28-8.2,14.44-16.48,21.66-24.73"/>
  <g>
    <path class="cls-1" d="m60.8,2.53c-15.32.08-30.62.27-45.94.41h59.64c-4.57-.15-9.13-.44-13.7-.41Z"/>
    <path class="cls-1" d="m3.82,2.94c3.68,0,7.36.03,11.04,0H3.82Z"/>
    <path class="cls-1" d="m14.42,14.87l49.92.44c-1.48-.15-2.95-.42-4.42-.42-15.17-.03-30.33-.02-45.5-.02Z"/>
  </g>
  <path class="cls-1" d="m78.04,2.94h13.7"/>
</svg>